<?xml version="1.0" standalone="no"?>
<!DOCTYPE svg PUBLIC "-//W3C//DTD SVG 20010904//EN"
 "http://www.w3.org/TR/2001/REC-SVG-20010904/DTD/svg10.dtd">
<svg version="1.0"
  xmlns="http://www.w3.org/2000/svg" width="700.000000pt" height="700.000000pt" viewBox="0 0 700.000000 700.000000" preserveAspectRatio="xMidYMid meet">
  <metadata>
Created by potrace 1.11, written by Peter Selinger 2001-2013
  </metadata>
  <g transform="translate(0.000000,700.000000) scale(0.100000,-0.100000)" fill="#000000" stroke="none">
    <path d="M2052 4648 c-153 -15 -296 -78 -368 -161 -19 -23 -55 -82 -79 -132
-81 -168 -78 -139 -83 -785 -4 -625 -2 -652 50 -798 74 -204 187 -307 393
-359 105 -26 353 -23 457 5 163 44 236 101 302 234 70 144 80 194 81 403 l0
180 -221 3 -221 2 -6 -172 c-6 -208 -20 -268 -71 -315 -33 -30 -41 -33 -101
-33 -105 0 -151 35 -182 135 -17 55 -18 107 -18 670 0 564 1 615 18 670 31 98
68 125 174 125 87 0 126 -22 155 -88 18 -40 22 -73 26 -224 l5 -178 223 0 224
0 0 163 c0 194 -16 273 -81 398 -51 98 -110 159 -192 198 -110 52 -310 77
-485 59z"/>
    <path d="M3370 4558 c-6 -29 -103 -510 -215 -1068 -113 -558 -207 -1023 -209
-1033 -4 -16 10 -17 217 -15 l222 3 37 205 c20 113 40 220 43 238 l6 32 174 0
c173 0 175 0 180 -22 3 -13 19 -111 35 -218 17 -107 33 -205 35 -217 5 -23 6
-23 220 -23 118 0 215 3 215 8 0 4 -97 491 -215 1082 -118 591 -215 1076 -215
1077 0 2 -117 3 -259 3 l-259 0 -12 -52z m400 -1345 c0 -10 -33 -13 -130 -13
-130 0 -130 0 -125 23 3 12 30 184 60 382 30 198 58 374 62 390 4 20 27 -99
69 -370 35 -220 64 -406 64 -412z"/>
    <path d="M4280 4445 l0 -165 175 0 175 0 0 -920 0 -920 230 0 230 0 2 918 3
917 173 3 172 2 0 165 0 165 -580 0 -580 0 0 -165z"/>
  </g>
</svg>
